<?xml version="1.0" standalone="no"?>
<!DOCTYPE svg PUBLIC "-//W3C//DTD SVG 20010904//EN"
 "http://www.w3.org/TR/2001/REC-SVG-20010904/DTD/svg10.dtd">
<svg version="1.0" xmlns="http://www.w3.org/2000/svg"
 width="728.000000pt" height="728.000000pt" viewBox="0 0 728.000000 728.000000"
 preserveAspectRatio="xMidYMid meet">
<metadata>
Created by potrace 1.14, written by Peter Selinger 2001-2017
</metadata>
<g transform="translate(0.000000,728.000000) scale(0.100000,-0.100000)"
fill="#000000" stroke="none">
<path d="M795 6348 c-37 -5 -56 -15 -79 -40 l-31 -32 0 -1586 c1 -872 4 -1600
7 -1618 4 -18 16 -51 28 -74 l21 -41 -24 -26 c-31 -33 -55 -79 -74 -145 -8
-28 -20 -57 -25 -63 -6 -7 -8 -13 -5 -13 4 0 -11 -50 -33 -110 -22 -61 -37
-110 -33 -110 3 0 1 -6 -4 -12 -6 -7 -29 -67 -51 -133 -22 -66 -88 -259 -147
-430 -58 -170 -108 -314 -109 -320 -2 -5 -6 -17 -9 -25 -3 -8 -32 -94 -65
-190 -59 -178 -66 -218 -48 -307 15 -79 89 -173 168 -215 l43 -23 2990 0 2990
0 59 29 c33 16 76 45 97 65 42 40 104 154 95 176 -3 8 -1 17 3 20 14 8 -1 110
-20 145 -7 12 -138 403 -145 435 -2 6 -8 24 -14 40 -15 40 -360 1077 -363
1092 -2 6 -21 36 -44 66 -40 53 -41 56 -26 84 47 88 46 69 47 765 1 361 3 658
6 660 3 2 43 16 90 32 47 16 101 36 120 45 19 8 37 15 40 16 3 1 18 5 34 10
16 4 41 14 55 21 14 8 30 14 34 14 19 0 260 112 269 125 4 5 8 7 8 2 0 -9 215
99 258 130 17 13 32 20 32 16 0 -4 4 -3 8 2 4 6 32 29 62 51 76 57 136 119
178 184 20 30 37 60 39 65 26 100 31 138 28 204 -5 121 -49 217 -138 297 -80
72 -165 106 -302 121 -109 12 -307 6 -390 -12 -11 -3 -31 -7 -45 -9 -14 -3
-36 -7 -50 -10 -32 -7 -94 -20 -100 -21 -3 0 -11 -4 -17 -8 -7 -5 -13 -6 -13
-3 0 3 -18 -1 -40 -9 -22 -8 -40 -12 -40 -10 0 3 -12 0 -27 -6 -15 -6 -44 -13
-65 -15 l-37 -6 -1 219 c-1 120 -1 256 -1 302 0 98 -14 139 -59 171 l-32 23
-2527 1 c-1390 0 -2550 -2 -2576 -6z m178 -226 c-47 -14 -72 -51 -64 -95 1 -5
-3 -6 -7 -3 -14 9 -2 59 21 84 12 13 31 22 46 21 25 -1 25 -1 4 -7z m47 -2 c0
-5 -2 -10 -4 -10 -3 0 -8 5 -11 10 -3 6 -1 10 4 10 6 0 11 -4 11 -10z m37 4
c-3 -3 -12 -4 -19 -1 -8 3 -5 6 6 6 11 1 17 -2 13 -5z m76 -1 c-7 -2 -21 -2
-30 0 -10 3 -4 5 12 5 17 0 24 -2 18 -5z m77 3 c0 -2 -7 -6 -15 -10 -8 -3 -15
-1 -15 4 0 6 7 10 15 10 8 0 15 -2 15 -4z m50 0 c0 -2 -9 -6 -20 -9 -11 -3
-20 -1 -20 4 0 5 9 9 20 9 11 0 20 -2 20 -4z m30 -6 c0 -5 -2 -10 -4 -10 -3 0
-8 5 -11 10 -3 6 -1 10 4 10 6 0 11 -4 11 -10z m37 4 c-3 -3 -12 -4 -19 -1 -8
3 -5 6 6 6 11 1 17 -2 13 -5z m46 -1 c-7 -2 -19 -2 -25 0 -7 3 -2 5 12 5 14 0
19 -2 13 -5z m67 3 c0 -3 -4 -8 -10 -11 -5 -3 -10 -1 -10 4 0 6 5 11 10 11 6
0 10 -2 10 -4z m60 -7 c0 -4 -10 -6 -21 -4 -32 6 -34 13 -4 13 14 0 25 -4 25
-9z m37 5 c-3 -3 -12 -4 -19 -1 -8 3 -5 6 6 6 11 1 17 -2 13 -5z m76 -1 c-7
-2 -21 -2 -30 0 -10 3 -4 5 12 5 17 0 24 -2 18 -5z m77 3 c0 -2 -7 -6 -15 -10
-8 -3 -15 -1 -15 4 0 6 7 10 15 10 8 0 15 -2 15 -4z m50 0 c0 -2 -9 -6 -20 -9
-11 -3 -20 -1 -20 4 0 5 9 9 20 9 11 0 20 -2 20 -4z m30 -6 c0 -5 -2 -10 -4
-10 -3 0 -8 5 -11 10 -3 6 -1 10 4 10 6 0 11 -4 11 -10z m37 4 c-3 -3 -12 -4
-19 -1 -8 3 -5 6 6 6 11 1 17 -2 13 -5z m46 -1 c-7 -2 -19 -2 -25 0 -7 3 -2 5
12 5 14 0 19 -2 13 -5z m67 3 c0 -3 -4 -8 -10 -11 -5 -3 -10 -1 -10 4 0 6 5
11 10 11 6 0 10 -2 10 -4z m60 -7 c0 -4 -10 -6 -21 -4 -32 6 -34 13 -4 13 14
0 25 -4 25 -9z m37 5 c-3 -3 -12 -4 -19 -1 -8 3 -5 6 6 6 11 1 17 -2 13 -5z
m76 -1 c-7 -2 -21 -2 -30 0 -10 3 -4 5 12 5 17 0 24 -2 18 -5z m77 3 c0 -2 -7
-6 -15 -10 -8 -3 -15 -1 -15 4 0 6 7 10 15 10 8 0 15 -2 15 -4z m50 0 c0 -2
-9 -6 -20 -9 -11 -3 -20 -1 -20 4 0 5 9 9 20 9 11 0 20 -2 20 -4z m30 -6 c0
-5 -2 -10 -4 -10 -3 0 -8 5 -11 10 -3 6 -1 10 4 10 6 0 11 -4 11 -10z m37 4
c-3 -3 -12 -4 -19 -1 -8 3 -5 6 6 6 11 1 17 -2 13 -5z m46 -1 c-7 -2 -19 -2
-25 0 -7 3 -2 5 12 5 14 0 19 -2 13 -5z m3433 -24 c19 -21 31 -69 17 -69 -4 0
-9 12 -10 27 0 15 -11 35 -23 45 -12 10 -18 18 -13 18 6 0 18 -9 29 -21z m21
-136 c1 -24 0 -25 -6 -8 -7 17 -6 35 2 35 2 0 3 -12 4 -27z m0 -60 c1 -24 0
-25 -6 -8 -7 17 -6 35 2 35 2 0 3 -12 4 -27z m0 -53 c1 -11 -2 -20 -7 -20 -6
0 -7 17 -1 38 3 8 7 -1 8 -18z m0 -67 c1 -24 0 -25 -6 -8 -7 17 -6 35 2 35 2
0 3 -12 4 -27z m0 -60 c1 -24 0 -25 -6 -8 -7 17 -6 35 2 35 2 0 3 -12 4 -27z
m0 -60 c1 -24 0 -25 -6 -8 -7 17 -6 35 2 35 2 0 3 -12 4 -27z m0 -60 c1 -24 0
-25 -6 -8 -7 17 -6 35 2 35 2 0 3 -12 4 -27z m682 -797 c-7 -7 -89 -34 -89
-29 0 6 63 32 79 33 8 0 12 -2 10 -4z m-432 -162 c-3 -3 -12 -4 -19 -1 -8 3
-5 6 6 6 11 1 17 -2 13 -5z m-250 -381 c1 -24 0 -25 -6 -8 -7 17 -6 35 2 35 2
0 3 -12 4 -27z m0 -60 c1 -24 0 -25 -6 -8 -7 17 -6 35 2 35 2 0 3 -12 4 -27z
m0 -60 c1 -24 0 -25 -6 -8 -7 17 -6 35 2 35 2 0 3 -12 4 -27z m0 -53 c1 -11
-2 -20 -7 -20 -6 0 -7 17 -1 38 3 8 7 -1 8 -18z m0 -67 c1 -24 0 -25 -6 -8 -7
17 -6 35 2 35 2 0 3 -12 4 -27z m0 -60 c1 -24 0 -25 -6 -8 -7 17 -6 35 2 35 2
0 3 -12 4 -27z m0 -60 c1 -24 0 -25 -6 -8 -7 17 -6 35 2 35 2 0 3 -12 4 -27z
m0 -53 c1 -11 -2 -20 -7 -20 -6 0 -7 17 -1 38 3 8 7 -1 8 -18z m0 -67 c1 -24
0 -25 -6 -8 -7 17 -6 35 2 35 2 0 3 -12 4 -27z m0 -60 c1 -24 0 -25 -6 -8 -7
17 -6 35 2 35 2 0 3 -12 4 -27z m0 -60 c1 -24 0 -25 -6 -8 -7 17 -6 35 2 35 2
0 3 -12 4 -27z m0 -53 c1 -11 -2 -20 -7 -20 -6 0 -7 17 -1 38 3 8 7 -1 8 -18z
m0 -67 c1 -24 0 -25 -6 -8 -7 17 -6 35 2 35 2 0 3 -12 4 -27z m0 -60 c1 -24 0
-25 -6 -8 -7 17 -6 35 2 35 2 0 3 -12 4 -27z m0 -80 c1 -24 0 -25 -6 -8 -7 17
-6 35 2 35 2 0 3 -12 4 -27z m0 -60 c1 -24 0 -25 -6 -8 -7 17 -6 35 2 35 2 0
3 -12 4 -27z m0 -53 c1 -11 -2 -20 -7 -20 -6 0 -7 17 -1 38 3 8 7 -1 8 -18z
m0 -67 c1 -24 0 -25 -6 -8 -7 17 -6 35 2 35 2 0 3 -12 4 -27z m0 -60 c1 -24 0
-25 -6 -8 -7 17 -6 35 2 35 2 0 3 -12 4 -27z m0 -60 c1 -24 0 -25 -6 -8 -7 17
-6 35 2 35 2 0 3 -12 4 -27z m3 -57 c0 -3 -4 -8 -10 -11 -5 -3 -10 -1 -10 4 0
6 5 11 10 11 6 0 10 -2 10 -4z m542 -1878 c6 -39 -3 -66 -30 -93 -14 -14 -27
-23 -29 -21 -3 2 5 14 16 25 24 24 36 62 28 91 -3 11 -1 20 3 20 5 0 10 -10
12 -22z"/>
</g>
</svg>
